<?xml version="1.0" encoding="utf-8"?>
<!-- Generator: Adobe Illustrator 26.2.1, SVG Export Plug-In . SVG Version: 6.00 Build 0)  -->
<svg version="1.1" id="Capa_1" xmlns="http://www.w3.org/2000/svg" xmlns:xlink="http://www.w3.org/1999/xlink" x="0px" y="0px"
	 viewBox="0 0 480.5 249.2" style="enable-background:new 0 0 480.5 249.2;" xml:space="preserve">
<style type="text/css">
	.st0{opacity:0.37;fill:none;stroke:#801AE6;stroke-miterlimit:10;}
	.st1{opacity:0.37;fill:url(#SVGID_1_);}
	.st2{opacity:0.37;fill:url(#SVGID_00000062871408794460400290000005808523175908931252_);}
	.st3{opacity:0.37;fill:url(#SVGID_00000096050123383829948880000010694542951527098534_);}
	.st4{opacity:0.37;fill:url(#SVGID_00000026135691530161684400000010584311108009548703_);}
	.st5{opacity:0.37;fill:none;stroke:#801AE6;stroke-width:1.69;stroke-miterlimit:10;}
</style>
<path class="st0" d="M40,90.9C39.4,91,38.9,91,38.3,91c-3,0-5.3-0.9-6.7-2.6c-1.5-2-2.3-4.4-2.2-6.9v-8h10.8v-8.7H29.4v-9.6h-9.3
	v26.3c0,2.4,0.4,4.8,1.2,7.1c0.8,2.2,2,4.1,3.6,5.8c1.6,1.7,3.5,3,5.6,3.9c2.4,1,4.9,1.5,7.4,1.4c0.7,0,1.3,0,2-0.1l1.5-0.2l0.4-0.1
	v-8.8l-0.6,0.1C40.9,90.8,40.4,90.8,40,90.9z"/>
<path class="st0" d="M102.5,73.4c-0.2-1.6-0.4-3.2-0.8-4.8c-0.4-1.6-0.9-3.2-1.6-4.7l-0.1-0.3h-9.5l0.3,0.7c0.7,1.5,1.2,3,1.6,4.5
	c0.4,1.6,0.6,3.2,0.8,4.8c0.2,1.6,0.3,3.1,0.3,4.4s0.1,2.6,0.1,3.5c0.1,2.4-0.5,4.8-1.7,6.9c-1.1,1.7-3.1,2.7-5.1,2.6
	c-2.4,0-4.1-0.7-5.2-2.2c-1.2-1.7-1.8-3.8-1.7-5.9V63.6h-9.3v19.3c0.1,2.1-0.5,4.2-1.7,5.9C67.7,90.3,66,91,63.7,91
	s-4.1-0.7-5.2-2.2c-1.2-1.7-1.8-3.8-1.7-5.9V63.6h-9.3v19.3c0,2.2,0.3,4.4,1.1,6.6c0.7,2,1.8,3.8,3.2,5.4c1.4,1.6,3.1,2.8,5.1,3.7
	c2.2,0.9,4.5,1.4,6.9,1.3c2.5,0.1,5.1-0.6,7.2-2c1.8-1.2,3.2-2.7,4.3-4.5c1.1,1.8,2.5,3.4,4.3,4.5c2.2,1.4,4.7,2.1,7.2,2
	c2.4,0,4.7-0.5,6.9-1.4c2-0.9,3.7-2.3,5.1-3.9c1.4-1.7,2.5-3.7,3.2-5.8c0.7-2.3,1.1-4.7,1.1-7.1c0-1,0-2.2-0.1-3.6
	S102.7,75,102.5,73.4z"/>
<linearGradient id="SVGID_1_" gradientUnits="userSpaceOnUse" x1="201.7362" y1="171.4017" x2="245.1213" y2="209.1274" gradientTransform="matrix(1 0 0 -1 0 249.89)">
	<stop  offset="0" style="stop-color:#6116B7"/>
	<stop  offset="1" style="stop-color:#801AE6"/>
</linearGradient>
<path class="st1" d="M240.5,84.4c-1,0.1-2.1,0.2-3.1,0.2c-5.6,0-9.8-1.6-12.4-4.8s-4-7.6-4-12.8V52.3h20V36h-20V18.3h-17.3V67
	c0,4.5,0.8,9,2.3,13.2c1.5,4,3.7,7.7,6.6,10.8c2.9,3.1,6.5,5.6,10.4,7.2c4.4,1.8,9.1,2.7,13.8,2.7c1.2,0,2.5,0,3.7-0.2
	c0.7-0.1,1.6-0.3,2.8-0.4l0.8-0.1V83.8L243,84C242.2,84.1,241.4,84.3,240.5,84.4z"/>
<linearGradient id="SVGID_00000094575941206256125030000004152844762942691507_" gradientUnits="userSpaceOnUse" x1="264.9161" y1="155.1926" x2="344.4457" y2="224.327" gradientTransform="matrix(1 0 0 -1 0 249.89)">
	<stop  offset="0" style="stop-color:#6116B7"/>
	<stop  offset="1" style="stop-color:#801AE6"/>
</linearGradient>
<path style="opacity:0.37;fill:url(#SVGID_00000094575941206256125030000004152844762942691507_);" d="M356.3,52c-0.3-3-0.8-6-1.5-9
	c-0.7-3-1.7-5.9-3-8.7l-0.2-0.5H334l0.6,1.3c1.3,2.7,2.3,5.5,2.9,8.4c0.7,2.9,1.2,5.9,1.5,8.9c0.3,2.9,0.5,5.7,0.6,8.2
	s0.1,4.7,0.1,6.4c0,5.2-1.1,9.6-3.2,12.8s-5.1,4.8-9.5,4.8s-7.5-1.3-9.5-4.1s-3.1-6.5-3.1-10.9V33.8h-17.3v35.8
	c0,4.4-1,8.1-3.1,10.9s-5.2,4.1-9.6,4.1s-7.5-1.3-9.5-4.1s-3.1-6.5-3.1-10.9V33.8h-17.3v35.8c0,4.1,0.6,8.2,2,12.1
	c1.3,3.7,3.3,7,5.9,9.9c2.6,2.9,5.8,5.2,9.4,6.8c4,1.7,8.3,2.5,12.7,2.5c4.7,0.1,9.4-1.1,13.4-3.6c3.3-2.1,6-5,8-8.3
	c2,3.4,4.7,6.2,8,8.3c4,2.5,8.6,3.8,13.4,3.6c4.4,0.1,8.7-0.8,12.7-2.7c3.6-1.7,6.8-4.2,9.4-7.3c2.6-3.2,4.6-6.8,5.9-10.8
	c1.3-4.3,1.9-8.7,1.9-13.2c0-1.8,0-4-0.1-6.7C356.8,57.7,356.6,54.9,356.3,52z"/>
<path class="st0" d="M185.4,165.3c-0.6,0.1-1.1,0.1-1.7,0.1c-3.1,0-5.3-0.9-6.7-2.6c-1.5-2-2.3-4.4-2.2-6.9v-8h10.8v-8.8h-10.8v-9.6
	h-9.4v26.3c0,2.4,0.4,4.8,1.3,7.1c0.8,2.2,2,4.1,3.6,5.8c1.6,1.7,3.5,3,5.6,3.9c2.4,1,4.9,1.5,7.5,1.4c0.7,0,1.3,0,2-0.1l1.5-0.2
	l0.4-0.1V165l-0.6,0.1C186.4,165.2,185.9,165.3,185.4,165.3z"/>
<path class="st0" d="M248,147.8c-0.2-1.6-0.5-3.2-0.8-4.8c-0.4-1.6-0.9-3.2-1.6-4.7l-0.1-0.3H236l0.3,0.7c0.7,1.4,1.2,3,1.6,4.5
	c0.4,1.6,0.6,3.2,0.8,4.8c0.2,1.6,0.3,3.1,0.3,4.4s0.1,2.6,0.1,3.5c0.1,2.4-0.5,4.8-1.7,6.9c-1.1,1.7-3.1,2.7-5.1,2.6
	c-2.4,0-4.1-0.7-5.2-2.2c-1.2-1.7-1.8-3.8-1.7-5.9V138H216v19.3c0.1,2.1-0.5,4.2-1.7,5.9c-1.1,1.5-2.8,2.2-5.2,2.2s-4.1-0.7-5.2-2.2
	c-1.2-1.7-1.8-3.8-1.7-5.9V138H193v19.3c0,2.2,0.3,4.4,1.1,6.6c0.7,2,1.8,3.8,3.2,5.4c1.4,1.6,3.2,2.8,5.1,3.6
	c2.2,0.9,4.5,1.4,6.9,1.3c2.5,0.1,5.1-0.6,7.2-2c1.8-1.2,3.2-2.7,4.3-4.5c1.1,1.8,2.5,3.4,4.3,4.5c2.2,1.4,4.7,2.1,7.2,2
	c2.4,0,4.7-0.4,6.9-1.4c2-0.9,3.7-2.3,5.1-3.9c1.4-1.7,2.5-3.7,3.1-5.9c0.7-2.3,1.1-4.7,1.1-7.1c0-1,0-2.2-0.1-3.6
	S248.1,149.4,248,147.8z"/>
<linearGradient id="SVGID_00000134936172949372791580000000009270706067297689_" gradientUnits="userSpaceOnUse" x1="4.8835" y1="27.3557" x2="38.8818" y2="56.9142" gradientTransform="matrix(1 0 0 -1 0 249.89)">
	<stop  offset="0" style="stop-color:#6116B7"/>
	<stop  offset="1" style="stop-color:#801AE6"/>
</linearGradient>
<path style="opacity:0.37;fill:url(#SVGID_00000134936172949372791580000000009270706067297689_);" d="M35.3,227.2
	c-0.8,0.1-1.6,0.2-2.4,0.1c-4.4,0-7.7-1.3-9.7-3.8c-2.2-2.9-3.3-6.4-3.1-10V202h15.7v-12.7H20v-13.9H6.4v38.2c0,3.5,0.6,7,1.8,10.3
	c1.2,3.1,2.9,6,5.2,8.4c2.3,2.4,5.1,4.4,8.2,5.7c3.4,1.4,7.1,2.1,10.8,2.1c1,0,1.9,0,2.9-0.2c0.6-0.1,1.3-0.2,2.2-0.4l0.6-0.1v-12.8
	l-0.8,0.2C36.6,227,35.9,227.1,35.3,227.2z"/>
<linearGradient id="SVGID_00000060728479290926183580000003625065384482628503_" gradientUnits="userSpaceOnUse" x1="54.3967" y1="14.6049" x2="116.6699" y2="68.739" gradientTransform="matrix(1 0 0 -1 0 249.89)">
	<stop  offset="0" style="stop-color:#6116B7"/>
	<stop  offset="1" style="stop-color:#801AE6"/>
</linearGradient>
<path style="opacity:0.37;fill:url(#SVGID_00000060728479290926183580000003625065384482628503_);" d="M126,201.8
	c-0.3-2.4-0.7-4.7-1.2-7c-0.5-2.4-1.3-4.7-2.4-6.8l-0.2-0.4h-13.7l0.5,1c1,2.1,1.8,4.3,2.3,6.6c0.5,2.3,0.9,4.6,1.2,7
	c0.2,2.3,0.4,4.4,0.4,6.4s0.1,3.7,0.1,5c0.1,3.5-0.7,7-2.5,10.1c-1.6,2.5-4,3.7-7.5,3.7s-5.9-1-7.5-3.2c-1.7-2.5-2.6-5.5-2.4-8.6
	v-28H79.6v28c0.1,3-0.7,6-2.4,8.6c-1.6,2.1-4,3.2-7.5,3.2s-5.9-1-7.5-3.2c-1.7-2.5-2.6-5.5-2.5-8.6v-28H46.2v28
	c0,3.2,0.5,6.4,1.6,9.5c1,2.9,2.6,5.5,4.6,7.8c2.1,2.3,4.6,4.1,7.4,5.3c3.2,1.3,6.6,2,10,1.9c3.7,0.1,7.3-0.9,10.5-2.8
	c2.6-1.7,4.7-3.9,6.2-6.5c1.6,2.6,3.7,4.9,6.2,6.5c3.1,2,6.8,2.9,10.5,2.8c3.4,0.1,6.9-0.6,10-2.1c2.8-1.4,5.3-3.3,7.4-5.7
	c2.1-2.5,3.6-5.4,4.6-8.4c1-3.3,1.6-6.8,1.6-10.3c0-1.4,0-3.2-0.1-5.2S126.2,204.1,126,201.8z"/>
<path class="st5" d="M371.1,179.6c-0.9,0.1-1.9,0.2-2.8,0.2c-5.1,0-8.9-1.5-11.3-4.4s-3.6-6.9-3.6-11.6v-13.4h18.2v-14.8h-18.2
	v-16.1h-15.8v44.4c0,4.1,0.7,8.2,2.1,12c1.4,3.6,3.4,7,6.1,9.8c2.7,2.8,5.9,5.1,9.5,6.6c4,1.7,8.3,2.5,12.6,2.4c1.1,0,2.3,0,3.4-0.2
	c0.7-0.1,1.5-0.2,2.5-0.4l0.7-0.1V179l-1,0.2C372.7,179.4,371.9,179.5,371.1,179.6z"/>
<path class="st5" d="M476.6,150.1c-0.3-2.7-0.8-5.5-1.4-8.2c-0.6-2.7-1.5-5.4-2.8-7.9l-0.2-0.5h-15.9l0.6,1.2c1.2,2.4,2.1,5,2.6,7.6
	c0.6,2.7,1.1,5.4,1.3,8.1c0.3,2.6,0.5,5.2,0.5,7.5s0.1,4.3,0.1,5.9c0,4.8-1,8.7-2.9,11.7s-4.7,4.3-8.7,4.3s-6.9-1.2-8.7-3.7
	c-2-2.9-3-6.4-2.9-9.9v-32.6h-15.8v32.6c0.1,3.5-0.9,7-2.8,9.9c-1.9,2.5-4.7,3.7-8.7,3.7s-6.9-1.2-8.7-3.7c-2-2.9-3-6.4-2.8-9.9
	v-32.6h-15.8v32.6c0,3.7,0.6,7.5,1.8,11c1.2,3.3,3,6.4,5.3,9c2.4,2.6,5.3,4.7,8.6,6.1c3.7,1.6,7.6,2.3,11.6,2.2
	c4.3,0.1,8.5-1,12.2-3.3c3-1.9,5.5-4.5,7.3-7.6c1.8,3.1,4.3,5.7,7.3,7.6c3.6,2.3,7.9,3.5,12.2,3.4c4,0.1,8-0.8,11.6-2.4
	c3.3-1.6,6.2-3.8,8.6-6.6c2.4-2.9,4.2-6.2,5.3-9.8c1.2-3.9,1.8-7.9,1.8-12c0-1.7,0-3.7-0.1-6.1C477,155.2,476.9,152.7,476.6,150.1z"
	/>
</svg>
