<svg id="Capa_1" data-name="Capa 1" xmlns="http://www.w3.org/2000/svg" xmlns:xlink="http://www.w3.org/1999/xlink" viewBox="0 0 480.51 249.17"><defs><style>.cls-1,.cls-6{fill:none;stroke:#801ae6;stroke-miterlimit:10;}.cls-2{fill:url(#Degradado_sin_nombre_14);}.cls-3{fill:url(#Degradado_sin_nombre_14-2);}.cls-4{fill:url(#Degradado_sin_nombre_14-3);}.cls-5{fill:url(#Degradado_sin_nombre_14-4);}.cls-6{stroke-width:1.69px;}</style><linearGradient id="Degradado_sin_nombre_14" x1="201.74" y1="78.47" x2="245.13" y2="40.74" gradientUnits="userSpaceOnUse"><stop offset="0" stop-color="#6116b7"/><stop offset="1" stop-color="#801ae6"/></linearGradient><linearGradient id="Degradado_sin_nombre_14-2" x1="264.9" y1="94.69" x2="344.39" y2="25.59" xlink:href="#Degradado_sin_nombre_14"/><linearGradient id="Degradado_sin_nombre_14-3" x1="4.89" y1="222.54" x2="38.89" y2="192.98" xlink:href="#Degradado_sin_nombre_14"/><linearGradient id="Degradado_sin_nombre_14-4" x1="54.37" y1="235.25" x2="116.65" y2="181.11" xlink:href="#Degradado_sin_nombre_14"/></defs><path class="cls-1" d="M40,90.9a11.29,11.29,0,0,1-1.68.1c-3,0-5.3-.88-6.71-2.61a10.63,10.63,0,0,1-2.16-6.89v-8H40.24V64.76H29.42V55.19H20.08V81.5a20.15,20.15,0,0,0,1.25,7.12,17.36,17.36,0,0,0,3.59,5.82,17,17,0,0,0,5.64,3.91A18.47,18.47,0,0,0,38,99.79a13.53,13.53,0,0,0,2-.11l1.49-.25.41-.06V90.54l-.58.12C40.88,90.76,40.42,90.83,40,90.9Z"/><path class="cls-1" d="M102.51,73.39a41.07,41.07,0,0,0-.81-4.84,22.23,22.23,0,0,0-1.64-4.71l-.14-.27H90.47l.34.69a21.53,21.53,0,0,1,1.57,4.54,42.07,42.07,0,0,1,.79,4.8c.16,1.57.27,3.06.31,4.43s.07,2.55.07,3.47a12.75,12.75,0,0,1-1.7,6.93A5.6,5.6,0,0,1,86.71,91c-2.37,0-4.06-.72-5.16-2.21a9.68,9.68,0,0,1-1.69-5.89V63.57H70.52V82.9a9.68,9.68,0,0,1-1.69,5.89C67.73,90.28,66,91,63.67,91s-4.06-.72-5.16-2.21a9.67,9.67,0,0,1-1.68-5.89V63.57H47.48V82.9a19.44,19.44,0,0,0,1.08,6.55,15.46,15.46,0,0,0,3.17,5.36,14.92,14.92,0,0,0,5.08,3.65,16.82,16.82,0,0,0,6.86,1.33,13,13,0,0,0,7.21-2,13.78,13.78,0,0,0,4.31-4.51,13.78,13.78,0,0,0,4.31,4.51,13,13,0,0,0,7.21,2,15.66,15.66,0,0,0,6.87-1.45,15.12,15.12,0,0,0,5.09-3.92,17.41,17.41,0,0,0,3.16-5.82,23.1,23.1,0,0,0,1.07-7.1c0-1,0-2.18-.07-3.61S102.67,75,102.51,73.39Z"/><path class="cls-2" d="M240.5,84.43a22.1,22.1,0,0,1-3.1.18c-5.63,0-9.81-1.63-12.42-4.84s-4-7.55-4-12.75V52.28h20V36H221V18.3H203.67V67A37.25,37.25,0,0,0,206,80.2,32.2,32.2,0,0,0,212.64,91a31.3,31.3,0,0,0,10.44,7.25,34.4,34.4,0,0,0,13.81,2.66,23.61,23.61,0,0,0,3.71-.2c.73-.13,1.64-.28,2.76-.45l.76-.12V83.76L243,84C242.2,84.15,241.35,84.3,240.5,84.43Z"/><path class="cls-3" d="M356.33,52a75.19,75.19,0,0,0-1.51-9,40.32,40.32,0,0,0-3-8.72l-.24-.51H334l.63,1.29a39.09,39.09,0,0,1,2.9,8.4A75.71,75.71,0,0,1,339,52.38c.3,2.91.49,5.68.58,8.21s.13,4.72.13,6.43c0,5.24-1.07,9.55-3.16,12.84s-5.15,4.75-9.52,4.75-7.52-1.34-9.55-4.1-3.12-6.46-3.12-10.9V33.81H297.08v35.8c0,4.44-1.05,8.1-3.12,10.9s-5.16,4.1-9.56,4.1-7.51-1.34-9.55-4.1-3.12-6.46-3.12-10.9V33.81H254.42v35.8a36.35,36.35,0,0,0,2,12.13,29.23,29.23,0,0,0,5.87,9.93,28,28,0,0,0,9.41,6.75,31.19,31.19,0,0,0,12.71,2.46,24.1,24.1,0,0,0,13.36-3.63,25.29,25.29,0,0,0,8-8.35,25.42,25.42,0,0,0,8,8.35,24.07,24.07,0,0,0,13.35,3.63,29.23,29.23,0,0,0,12.74-2.67,28.18,28.18,0,0,0,9.41-7.28,31.67,31.67,0,0,0,5.85-10.77A42.63,42.63,0,0,0,357,67q0-2.72-.13-6.68C356.83,57.69,356.63,54.88,356.33,52Z"/><path class="cls-1" d="M185.44,165.32a11.15,11.15,0,0,1-1.67.1c-3.05,0-5.3-.88-6.71-2.61a10.57,10.57,0,0,1-2.16-6.88v-8h10.82v-8.78H174.9v-9.57h-9.35v26.32A20.14,20.14,0,0,0,166.8,163a17.28,17.28,0,0,0,3.6,5.82,16.88,16.88,0,0,0,5.63,3.91,18.49,18.49,0,0,0,7.46,1.44,13.38,13.38,0,0,0,2-.11l1.49-.24.41-.07V165l-.58.12C186.35,165.18,185.9,165.26,185.44,165.32Z"/><path class="cls-1" d="M248,147.81a41.14,41.14,0,0,0-.82-4.84,22.23,22.23,0,0,0-1.64-4.71l-.13-.27H236l.33.7a20.71,20.71,0,0,1,1.57,4.53,42.14,42.14,0,0,1,.8,4.8c.16,1.57.26,3.06.31,4.43s.07,2.55.07,3.48a12.79,12.79,0,0,1-1.71,6.93,5.61,5.61,0,0,1-5.14,2.56c-2.37,0-4.06-.72-5.16-2.21a9.67,9.67,0,0,1-1.68-5.89V138H216v19.33a9.74,9.74,0,0,1-1.68,5.89c-1.1,1.49-2.79,2.21-5.16,2.21s-4.06-.72-5.16-2.21a9.68,9.68,0,0,1-1.69-5.89V138H193v19.33a19.69,19.69,0,0,0,1.07,6.55,15.61,15.61,0,0,0,3.17,5.36,15.12,15.12,0,0,0,5.08,3.65,16.87,16.87,0,0,0,6.87,1.33,13,13,0,0,0,7.21-2,13.75,13.75,0,0,0,4.3-4.51,13.79,13.79,0,0,0,4.31,4.51,13,13,0,0,0,7.21,2,15.7,15.7,0,0,0,6.88-1.44,15.33,15.33,0,0,0,5.08-3.93A17.23,17.23,0,0,0,247.3,163a23.08,23.08,0,0,0,1.07-7.09c0-1,0-2.19-.07-3.62S248.15,149.37,248,147.81Z"/><path class="cls-4" d="M35.26,227.21a16.48,16.48,0,0,1-2.43.14c-4.42,0-7.69-1.27-9.73-3.79a15.39,15.39,0,0,1-3.14-10V202h15.7V189.27H20V175.4H6.4v38.17A29.15,29.15,0,0,0,8.22,223.9a25.17,25.17,0,0,0,5.21,8.44A24.56,24.56,0,0,0,21.61,238a27,27,0,0,0,10.82,2.08,18.29,18.29,0,0,0,2.9-.16c.57-.1,1.29-.22,2.16-.35l.6-.09V226.69l-.84.17C36.58,227,35.92,227.11,35.26,227.21Z"/><path class="cls-5" d="M126,201.8a60.52,60.52,0,0,0-1.18-7,31.88,31.88,0,0,0-2.38-6.83l-.19-.4H108.54l.49,1a30.41,30.41,0,0,1,2.27,6.58,61.22,61.22,0,0,1,1.16,7c.23,2.28.38,4.45.45,6.43s.1,3.7.1,5a18.53,18.53,0,0,1-2.47,10.06c-1.6,2.51-4,3.72-7.46,3.72s-5.89-1-7.49-3.2a14.1,14.1,0,0,1-2.44-8.55v-28H79.59v28a14.11,14.11,0,0,1-2.45,8.55c-1.59,2.15-4,3.2-7.48,3.2s-5.9-1-7.49-3.2a14.11,14.11,0,0,1-2.45-8.55v-28H46.16v28a28.55,28.55,0,0,0,1.56,9.5,22.7,22.7,0,0,0,4.6,7.78,21.82,21.82,0,0,0,7.38,5.29,24.34,24.34,0,0,0,10,1.93,18.86,18.86,0,0,0,10.46-2.84,20.07,20.07,0,0,0,6.25-6.54,19.86,19.86,0,0,0,6.25,6.54,18.82,18.82,0,0,0,10.46,2.84,22.86,22.86,0,0,0,10-2.09,22.32,22.32,0,0,0,7.37-5.7,25,25,0,0,0,4.59-8.44,33.55,33.55,0,0,0,1.55-10.3c0-1.42,0-3.16-.1-5.23S126.24,204.06,126,201.8Z"/><path class="cls-6" d="M371.12,179.6a18.41,18.41,0,0,1-2.82.17c-5.13,0-8.94-1.48-11.31-4.41s-3.65-6.88-3.65-11.6V150.33h18.25V135.51H353.34V119.38H337.58v44.38a34,34,0,0,0,2.11,12,29.29,29.29,0,0,0,6.06,9.8,28.54,28.54,0,0,0,9.51,6.61,31.45,31.45,0,0,0,12.57,2.42,21,21,0,0,0,3.38-.19c.66-.12,1.5-.25,2.51-.41l.69-.1V179l-1,.2C372.66,179.36,371.89,179.49,371.12,179.6Z"/><path class="cls-6" d="M476.6,150.07a69.84,69.84,0,0,0-1.37-8.16,37.09,37.09,0,0,0-2.77-7.94l-.22-.46H456.3l.56,1.17a35.08,35.08,0,0,1,2.65,7.65,70.29,70.29,0,0,1,1.34,8.09c.27,2.65.45,5.17.52,7.48s.12,4.29.12,5.86c0,4.76-1,8.69-2.87,11.68s-4.7,4.33-8.67,4.33-6.85-1.22-8.7-3.73a16.32,16.32,0,0,1-2.85-9.93v-32.6H422.64v32.6A16.32,16.32,0,0,1,419.8,176c-1.85,2.51-4.7,3.73-8.7,3.73s-6.85-1.22-8.7-3.73a16.32,16.32,0,0,1-2.84-9.93v-32.6H383.8v32.6a33.12,33.12,0,0,0,1.81,11,26.61,26.61,0,0,0,5.34,9,25.54,25.54,0,0,0,8.58,6.14,28.26,28.26,0,0,0,11.57,2.25,21.89,21.89,0,0,0,12.16-3.31,23.07,23.07,0,0,0,7.26-7.6,23.2,23.2,0,0,0,7.27,7.6A21.87,21.87,0,0,0,450,194.59a26.5,26.5,0,0,0,11.6-2.44,25.68,25.68,0,0,0,8.56-6.62,29,29,0,0,0,5.34-9.81,39.14,39.14,0,0,0,1.8-12q0-2.49-.12-6.09C477.05,155.25,476.87,152.7,476.6,150.07Z"/></svg>