<svg id="Capa_1" data-name="Capa 1" xmlns="http://www.w3.org/2000/svg" viewBox="0 0 189.99 41.62"><defs><style>.cls-1{fill:#fff;}</style></defs><path class="cls-1" d="M11.33,23.58a6.22,6.22,0,0,1-.95.06,4.65,4.65,0,0,1-3.82-1.49,6,6,0,0,1-1.23-3.92V13.69h6.16v-5H5.33V3.23H0v15a11.54,11.54,0,0,0,.71,4.05A10.07,10.07,0,0,0,2.76,25.6,9.83,9.83,0,0,0,6,27.83a10.67,10.67,0,0,0,4.25.82,6.21,6.21,0,0,0,1.14-.07l.85-.14.24,0v-5l-.33.06C11.86,23.5,11.59,23.54,11.33,23.58Z"/><path class="cls-1" d="M33.06,9.69a8.8,8.8,0,0,0-2.77-1.4,12,12,0,0,0-3.47-.49,11.42,11.42,0,0,0-4.42.82,9.47,9.47,0,0,0-3.28,2.26,9.82,9.82,0,0,0-2,3.33,12.26,12.26,0,0,0,0,8.11,9.17,9.17,0,0,0,2.05,3.32,9.66,9.66,0,0,0,3.44,2.23,13,13,0,0,0,4.77.82c.49,0,1,0,1.55-.06s1.12-.11,1.71-.19,1.17-.17,1.75-.28,1.11-.23,1.59-.36l.2-.06V22.65l-.37.13a7.64,7.64,0,0,1-1.3.33q-.78.13-1.65.21l-1.71.14c-.55,0-1,.06-1.45.06a7,7,0,0,1-4.15-1,4.22,4.22,0,0,1-1.48-2,13.66,13.66,0,0,0,2,.65A12.22,12.22,0,0,0,30.33,21a8.66,8.66,0,0,0,2.75-1.38,6.36,6.36,0,0,0,1.81-2.16,6.15,6.15,0,0,0,.64-2.82,6,6,0,0,0-.64-2.79A6.71,6.71,0,0,0,33.06,9.69Zm-2.89,5a1.3,1.3,0,0,1-.81,1.21,5.48,5.48,0,0,1-2.5.47,13.82,13.82,0,0,1-2.51-.24,12,12,0,0,1-2.09-.55,4.49,4.49,0,0,1,1.56-1.79A5.61,5.61,0,0,1,27,13a5.16,5.16,0,0,1,2.4.47A1.29,1.29,0,0,1,30.17,14.64Z"/><path class="cls-1" d="M51.8,8a24,24,0,0,0-3.28-.23A11.66,11.66,0,0,0,44,8.62a10,10,0,0,0-3.32,2.23,9.6,9.6,0,0,0-2,3.34,12.38,12.38,0,0,0,0,8.15,9.6,9.6,0,0,0,2,3.34A9.71,9.71,0,0,0,44,27.91a11.66,11.66,0,0,0,4.48.82,24,24,0,0,0,3.28-.23,15.39,15.39,0,0,0,2.94-.66l.18-.07V22.22l-.4.22a9.35,9.35,0,0,1-2.57.83,18,18,0,0,1-3.19.29,7,7,0,0,1-2.62-.42A4.31,4.31,0,0,1,44.47,22a4.05,4.05,0,0,1-.89-1.66,8,8,0,0,1-.27-2.13,7.84,7.84,0,0,1,.27-2.1,3.91,3.91,0,0,1,.89-1.64,4.51,4.51,0,0,1,1.67-1.1A7,7,0,0,1,48.76,13a17.06,17.06,0,0,1,3.19.3,9.14,9.14,0,0,1,2.57.82l.4.22V8.76l-.18-.07A15.39,15.39,0,0,0,51.8,8Z"/><path class="cls-1" d="M76.51,10.82a9.06,9.06,0,0,0-3-2.24,8.76,8.76,0,0,0-3.82-.82,8.09,8.09,0,0,0-3.4.68,7.37,7.37,0,0,0-2,1.37V0H59V28.4h5.33V18a6,6,0,0,1,1.3-3.77,4.48,4.48,0,0,1,3.59-1.41,3.89,3.89,0,0,1,3.44,1.45,6.79,6.79,0,0,1,1.06,4V28.4h5.33V18.18a12.5,12.5,0,0,0-.65-4A9.9,9.9,0,0,0,76.51,10.82Z"/><path class="cls-1" d="M121.33,13.6a23.36,23.36,0,0,0-.46-2.76,12.5,12.5,0,0,0-.94-2.68L119.86,8h-5.39l.19.4a12,12,0,0,1,.9,2.59,22.5,22.5,0,0,1,.45,2.73c.09.9.15,1.75.18,2.53s0,1.45,0,2a7.28,7.28,0,0,1-1,3.94,3.2,3.2,0,0,1-2.93,1.47,3.37,3.37,0,0,1-2.94-1.26,5.51,5.51,0,0,1-1-3.36V8H103.1V19a5.51,5.51,0,0,1-1,3.36,4.06,4.06,0,0,1-5.88,0,5.51,5.51,0,0,1-1-3.36V8H90V19a11.31,11.31,0,0,0,.61,3.73,9,9,0,0,0,1.81,3.06,8.74,8.74,0,0,0,2.9,2.08,9.6,9.6,0,0,0,3.91.76,7.43,7.43,0,0,0,4.11-1.12A7.83,7.83,0,0,0,105.76,25a7.86,7.86,0,0,0,2.46,2.57,7.41,7.41,0,0,0,4.11,1.12,9,9,0,0,0,3.92-.83,8.6,8.6,0,0,0,2.89-2.24,9.55,9.55,0,0,0,1.8-3.31,13,13,0,0,0,.61-4c0-.56,0-1.25,0-2.06S121.43,14.49,121.33,13.6Z"/><path class="cls-1" d="M147.11,25.19a22.25,22.25,0,0,1-.43-2.73c-.08-.87-.12-1.67-.12-2.38s0-1.35,0-1.86a12.89,12.89,0,0,0-.83-4.29,9.85,9.85,0,0,0-2.09-3.3,9.2,9.2,0,0,0-3.22-2.09,12.36,12.36,0,0,0-8.64.08,9.9,9.9,0,0,0-3.32,2.23,9.46,9.46,0,0,0-2,3.32,11.67,11.67,0,0,0-.69,4,11.42,11.42,0,0,0,.73,4.09,10.26,10.26,0,0,0,2.05,3.31,9.66,9.66,0,0,0,3.15,2.24,9.85,9.85,0,0,0,4,.82,8.12,8.12,0,0,0,3.95-.91,7.92,7.92,0,0,0,2.36-2,14.31,14.31,0,0,0,.88,2.53l.07.16h5.39l-.18-.39A14.55,14.55,0,0,1,147.11,25.19Zm-5.92-7a5.54,5.54,0,0,1-1.32,4.11,5.11,5.11,0,0,1-3.69,1.3,6.1,6.1,0,0,1-2.4-.42,4.06,4.06,0,0,1-1.59-1.14,4.55,4.55,0,0,1-.9-1.7,8.43,8.43,0,0,1,0-4.31,4.55,4.55,0,0,1,.9-1.7,4.06,4.06,0,0,1,1.59-1.14,6.1,6.1,0,0,1,2.4-.42,4.5,4.5,0,0,1,3.72,1.43A6.71,6.71,0,0,1,141.19,18.23Z"/><polygon class="cls-1" points="164.39 8 158.61 22.45 152.9 8.18 152.83 8 147.45 8 156.04 28.45 161.18 28.45 169.76 8 164.39 8"/><path class="cls-1" d="M184.78,21a8.66,8.66,0,0,0,2.75-1.38,6.36,6.36,0,0,0,1.81-2.16,6.19,6.19,0,0,0,.65-2.82,6,6,0,0,0-.65-2.79,6.48,6.48,0,0,0-1.83-2.16,8.7,8.7,0,0,0-2.77-1.4,11.9,11.9,0,0,0-3.46-.49,11.35,11.35,0,0,0-4.42.82,9.42,9.42,0,0,0-3.28,2.26,9.69,9.69,0,0,0-2,3.33,12.43,12.43,0,0,0,0,8.11,9.17,9.17,0,0,0,2.05,3.32A9.66,9.66,0,0,0,177,27.87a13,13,0,0,0,4.78.82c.48,0,1,0,1.55-.06s1.12-.11,1.71-.19,1.17-.17,1.74-.28,1.12-.23,1.59-.36l.21-.06V22.65l-.37.13a8,8,0,0,1-1.31.33q-.78.13-1.65.21l-1.7.14c-.55,0-1,.06-1.46.06a7,7,0,0,1-4.15-1,4.14,4.14,0,0,1-1.47-2,13.53,13.53,0,0,0,2,.65A12.22,12.22,0,0,0,184.78,21Zm-8.06-5.47a4.46,4.46,0,0,1,1.55-1.79,5.65,5.65,0,0,1,3.17-.77,5.12,5.12,0,0,1,2.39.47,1.31,1.31,0,0,1,0,2.41,5.54,5.54,0,0,1-2.5.47,13.93,13.93,0,0,1-2.52-.24A11.66,11.66,0,0,1,176.72,15.53Z"/><path class="cls-1" d="M49.45,38.46H47.61v3.16h-1V33.8h2.59a3.05,3.05,0,0,1,2,.6,2.38,2.38,0,0,1,.32,3,2.36,2.36,0,0,1-1.1.81l1.84,3.32v.06H51.14Zm-1.84-.85h1.58a1.79,1.79,0,0,0,1.22-.39,1.34,1.34,0,0,0,.46-1.07A1.45,1.45,0,0,0,50.44,35a1.87,1.87,0,0,0-1.25-.4H47.61Z"/><path class="cls-1" d="M56.21,41.62h-1V33.8h1Z"/><path class="cls-1" d="M59.84,41.62V33.8h2.21a3.54,3.54,0,0,1,1.8.45,3,3,0,0,1,1.21,1.29,4.17,4.17,0,0,1,.44,1.91V38a4.3,4.3,0,0,1-.43,1.94,3,3,0,0,1-1.22,1.27,3.78,3.78,0,0,1-1.85.46Zm1-7v6.14H62A2.37,2.37,0,0,0,63.81,40a3.1,3.1,0,0,0,.67-2.12v-.45a3.13,3.13,0,0,0-.63-2.08,2.25,2.25,0,0,0-1.78-.75Z"/><path class="cls-1" d="M73.22,38H69.83v2.77h3.94v.84h-5V33.8h4.92v.84H69.83v2.52h3.39Z"/><path class="cls-1" d="M86.46,34.64H84v7h-1v-7h-2.5V33.8h6Z"/><path class="cls-1" d="M95.38,41.62h-1V38H90.4v3.61h-1V33.8h1v3.36h3.95V33.8h1Z"/><path class="cls-1" d="M103.38,38H100v2.77h3.93v.84H99V33.8h4.92v.84H100v2.52h3.38Z"/><path class="cls-1" d="M113.12,39.16l.15,1,.22-.93L115,33.8h.87l1.51,5.46.22.94.16-1.05L119,33.8h1l-1.89,7.82h-.94l-1.61-5.7-.13-.59-.12.59-1.67,5.7h-.94l-1.89-7.82h1Z"/><path class="cls-1" d="M127,39.57h-3.27l-.74,2H122l3-7.82h.91l3,7.82h-1.06Zm-3-.84h2.66l-1.34-3.66Z"/><path class="cls-1" d="M133.76,40.25,136,33.8h1.13l-2.9,7.82h-.91l-2.9-7.82h1.13Z"/><path class="cls-1" d="M144.34,38H141v2.77h3.94v.84h-5V33.8h4.91v.84H141v2.52h3.39Z"/></svg>