<svg id="Capa_1" data-name="Capa 1" xmlns="http://www.w3.org/2000/svg" xmlns:xlink="http://www.w3.org/1999/xlink" viewBox="0 0 91.56 91.56"><defs><style>.cls-1{fill:url(#Degradado_sin_nombre_5);}.cls-2{fill:#fff;}</style><linearGradient id="Degradado_sin_nombre_5" y1="45.78" x2="91.56" y2="45.78" gradientUnits="userSpaceOnUse"><stop offset="0" stop-color="#a21ae6"/><stop offset="1" stop-color="#801ae6"/></linearGradient></defs><rect class="cls-1" width="91.56" height="91.56" rx="10.23"/><path class="cls-2" d="M60.24,65a17,17,0,0,1-2.37.14c-4.3,0-7.49-1.24-9.48-3.7a15,15,0,0,1-3.06-9.73V40.4h15.3V28H45.33V14.46H32.12v37.2a28.57,28.57,0,0,0,1.77,10.06A24.6,24.6,0,0,0,39,70a23.94,23.94,0,0,0,8,5.53,26.25,26.25,0,0,0,10.54,2,18.6,18.6,0,0,0,2.83-.16c.56-.1,1.26-.22,2.11-.35l.58-.09V64.44l-.82.17C61.53,64.74,60.89,64.85,60.24,65Z"/></svg>